<svg width="272" height="204" viewBox="0 0 272 204" fill="none" xmlns="http://www.w3.org/2000/svg">
<g filter="url(#filter0_d_13_395)">
<path fill-rule="evenodd" clip-rule="evenodd" d="M264.787 121.356C259.236 124.7 253.166 127.316 246.65 129.062C206.009 139.952 163.438 112.858 151.564 68.5458C147.236 52.3941 147.585 36.1842 151.743 21.5771C124.863 39.6874 111.043 73.0369 119.758 105.563C130.788 146.729 173.739 170.988 215.691 159.746C237.542 153.892 254.812 139.561 264.787 121.356Z" fill="url(#paint0_linear_13_395)"/>
<rect x="39.9856" y="122.195" width="146.576" height="72.8489" fill="#8CD6FF"/>
<circle cx="77.2878" cy="121.756" r="48.7122" fill="#8CD6FF"/>
<circle cx="143.993" cy="130.533" r="34.6691" fill="#8CD6FF"/>
<circle cx="40.4245" cy="158.619" r="36.4245" fill="#8CD6FF"/>
<circle cx="186.561" cy="158.181" r="36.8633" fill="#8CD6FF"/>
</g>
<defs>
<filter id="filter0_d_13_395" x="0" y="21.5771" width="268.787" height="181.467" filterUnits="userSpaceOnUse" color-interpolation-filters="sRGB">
<feFlood flood-opacity="0" result="BackgroundImageFix"/>
<feColorMatrix in="SourceAlpha" type="matrix" values="0 0 0 0 0 0 0 0 0 0 0 0 0 0 0 0 0 0 127 0" result="hardAlpha"/>
<feOffset dy="4"/>
<feGaussianBlur stdDeviation="2"/>
<feComposite in2="hardAlpha" operator="out"/>
<feColorMatrix type="matrix" values="0 0 0 0 0 0 0 0 0 0 0 0 0 0 0 0 0 0 0.25 0"/>
<feBlend mode="normal" in2="BackgroundImageFix" result="effect1_dropShadow_13_395"/>
<feBlend mode="normal" in="SourceGraphic" in2="effect1_dropShadow_13_395" result="shape"/>
</filter>
<linearGradient id="paint0_linear_13_395" x1="166.587" y1="17.5997" x2="205.413" y2="162.501" gradientUnits="userSpaceOnUse">
<stop stop-color="#1B3885"/>
<stop offset="1" stop-color="#110F7A"/>
</linearGradient>
</defs>
</svg>
