<svg width="270" height="229" viewBox="0 0 270 229" fill="none" xmlns="http://www.w3.org/2000/svg">
<path fill-rule="evenodd" clip-rule="evenodd" d="M262.787 122.312C257.236 125.657 251.166 128.272 244.65 130.018C204.009 140.908 161.438 113.814 149.564 69.5019C145.236 53.3502 145.585 37.1404 149.743 22.5333C122.863 40.6436 109.043 73.9931 117.758 106.52C128.788 147.685 171.739 171.944 213.691 160.703C235.542 154.848 252.812 140.517 262.787 122.312Z" fill="url(#paint0_linear_13_414)"/>
<rect x="35.9856" y="118.151" width="146.576" height="72.8489" fill="#8CD6FF"/>
<circle cx="73.2878" cy="117.712" r="48.7122" fill="#8CD6FF"/>
<circle cx="139.993" cy="126.489" r="34.6691" fill="#8CD6FF"/>
<circle cx="36.4245" cy="154.576" r="36.4245" fill="#8CD6FF"/>
<circle cx="182.561" cy="154.137" r="36.8633" fill="#8CD6FF"/>
<path d="M43 207L27 226" stroke="url(#paint1_linear_13_414)" stroke-width="5" stroke-linecap="round"/>
<path d="M109 207L93 226" stroke="url(#paint2_linear_13_414)" stroke-width="5" stroke-linecap="round"/>
<path d="M175 207L159 226" stroke="url(#paint3_linear_13_414)" stroke-width="5" stroke-linecap="round"/>
<path d="M65 207L49 226" stroke="url(#paint4_linear_13_414)" stroke-width="5" stroke-linecap="round"/>
<path d="M131 207L115 226" stroke="url(#paint5_linear_13_414)" stroke-width="5" stroke-linecap="round"/>
<path d="M87 207L71 226" stroke="url(#paint6_linear_13_414)" stroke-width="5" stroke-linecap="round"/>
<path d="M153 207L137 226" stroke="url(#paint7_linear_13_414)" stroke-width="5" stroke-linecap="round"/>
<defs>
<linearGradient id="paint0_linear_13_414" x1="164.587" y1="18.5558" x2="203.413" y2="163.457" gradientUnits="userSpaceOnUse">
<stop stop-color="#1B3885"/>
<stop offset="1" stop-color="#110F7A"/>
</linearGradient>
<linearGradient id="paint1_linear_13_414" x1="42.6175" y1="206.678" x2="26.6175" y2="225.678" gradientUnits="userSpaceOnUse">
<stop stop-color="#69A4FE"/>
<stop offset="1" stop-color="#0066FF"/>
</linearGradient>
<linearGradient id="paint2_linear_13_414" x1="108.618" y1="206.678" x2="92.6175" y2="225.678" gradientUnits="userSpaceOnUse">
<stop stop-color="#69A4FE"/>
<stop offset="1" stop-color="#0066FF"/>
</linearGradient>
<linearGradient id="paint3_linear_13_414" x1="174.618" y1="206.678" x2="158.618" y2="225.678" gradientUnits="userSpaceOnUse">
<stop stop-color="#69A4FE"/>
<stop offset="1" stop-color="#0066FF"/>
</linearGradient>
<linearGradient id="paint4_linear_13_414" x1="64.6175" y1="206.678" x2="48.6175" y2="225.678" gradientUnits="userSpaceOnUse">
<stop stop-color="#69A4FE"/>
<stop offset="1" stop-color="#0066FF"/>
</linearGradient>
<linearGradient id="paint5_linear_13_414" x1="130.618" y1="206.678" x2="114.618" y2="225.678" gradientUnits="userSpaceOnUse">
<stop stop-color="#69A4FE"/>
<stop offset="1" stop-color="#0066FF"/>
</linearGradient>
<linearGradient id="paint6_linear_13_414" x1="86.6175" y1="206.678" x2="70.6175" y2="225.678" gradientUnits="userSpaceOnUse">
<stop stop-color="#69A4FE"/>
<stop offset="1" stop-color="#0066FF"/>
</linearGradient>
<linearGradient id="paint7_linear_13_414" x1="152.618" y1="206.678" x2="136.618" y2="225.678" gradientUnits="userSpaceOnUse">
<stop stop-color="#69A4FE"/>
<stop offset="1" stop-color="#0066FF"/>
</linearGradient>
</defs>
</svg>
