<svg width="247" height="254" viewBox="0 0 247 254" fill="none" xmlns="http://www.w3.org/2000/svg">
<circle cx="163" cy="84" r="50" fill="url(#paint0_linear_13_385)"/>
<path d="M163 3V18" stroke="#FF9D43" stroke-width="5" stroke-linecap="round"/>
<path d="M163 150V165" stroke="#FF9D43" stroke-width="5" stroke-linecap="round"/>
<path d="M220.276 26.7244L209.669 37.331" stroke="#FF9D43" stroke-width="5" stroke-linecap="round"/>
<path d="M116.331 130.669L105.724 141.276" stroke="#FF9D43" stroke-width="5" stroke-linecap="round"/>
<path d="M244 84L229 84" stroke="#FF9D43" stroke-width="5" stroke-linecap="round"/>
<path d="M97 84L82 84" stroke="#FF9D43" stroke-width="5" stroke-linecap="round"/>
<path d="M220.276 141.276L209.669 130.669" stroke="#FF9D43" stroke-width="5" stroke-linecap="round"/>
<path d="M116.331 37.3309L105.724 26.7243" stroke="#FF9D43" stroke-width="5" stroke-linecap="round"/>
<rect x="35.9856" y="100.151" width="146.576" height="72.8489" fill="#8CD6FF"/>
<circle cx="73.2878" cy="99.7122" r="48.7122" fill="#8CD6FF"/>
<circle cx="139.993" cy="108.489" r="34.6691" fill="#8CD6FF"/>
<circle cx="36.4245" cy="136.576" r="36.4245" fill="#8CD6FF"/>
<circle cx="182.561" cy="136.137" r="36.8633" fill="#8CD6FF"/>
<path d="M50.5 187V219" stroke="#BDD7FF" stroke-width="5" stroke-linecap="round"/>
<path d="M50.5 187V219" stroke="#BDD7FF" stroke-width="5" stroke-linecap="round"/>
<path d="M61.8137 214.314L39.1863 191.686" stroke="#BDD7FF" stroke-width="5" stroke-linecap="round"/>
<path d="M39.1863 214.314L61.8137 191.686" stroke="#BDD7FF" stroke-width="5" stroke-linecap="round"/>
<path d="M66 203L34 203" stroke="#BDD7FF" stroke-width="5" stroke-linecap="round"/>
<path d="M107.5 187V219" stroke="#BDD7FF" stroke-width="5" stroke-linecap="round"/>
<path d="M107.5 187V219" stroke="#BDD7FF" stroke-width="5" stroke-linecap="round"/>
<path d="M118.814 214.314L96.1863 191.686" stroke="#BDD7FF" stroke-width="5" stroke-linecap="round"/>
<path d="M96.1863 214.314L118.814 191.686" stroke="#BDD7FF" stroke-width="5" stroke-linecap="round"/>
<path d="M123 203L91 203" stroke="#BDD7FF" stroke-width="5" stroke-linecap="round"/>
<path d="M164.5 187V219" stroke="#BDD7FF" stroke-width="5" stroke-linecap="round"/>
<path d="M164.5 187V219" stroke="#BDD7FF" stroke-width="5" stroke-linecap="round"/>
<path d="M175.814 214.314L153.186 191.686" stroke="#BDD7FF" stroke-width="5" stroke-linecap="round"/>
<path d="M153.186 214.314L175.814 191.686" stroke="#BDD7FF" stroke-width="5" stroke-linecap="round"/>
<path d="M180 203L148 203" stroke="#BDD7FF" stroke-width="5" stroke-linecap="round"/>
<path d="M82.5 219V251" stroke="#BDD7FF" stroke-width="5" stroke-linecap="round"/>
<path d="M82.5 219V251" stroke="#BDD7FF" stroke-width="5" stroke-linecap="round"/>
<path d="M93.8137 246.314L71.1863 223.686" stroke="#BDD7FF" stroke-width="5" stroke-linecap="round"/>
<path d="M71.1863 246.314L93.8137 223.686" stroke="#BDD7FF" stroke-width="5" stroke-linecap="round"/>
<path d="M98 235L66 235" stroke="#BDD7FF" stroke-width="5" stroke-linecap="round"/>
<path d="M135.5 219V251" stroke="#BDD7FF" stroke-width="5" stroke-linecap="round"/>
<path d="M135.5 219V251" stroke="#BDD7FF" stroke-width="5" stroke-linecap="round"/>
<path d="M146.814 246.314L124.186 223.686" stroke="#BDD7FF" stroke-width="5" stroke-linecap="round"/>
<path d="M124.186 246.314L146.814 223.686" stroke="#BDD7FF" stroke-width="5" stroke-linecap="round"/>
<path d="M151 235L119 235" stroke="#BDD7FF" stroke-width="5" stroke-linecap="round"/>
<defs>
<linearGradient id="paint0_linear_13_385" x1="163" y1="34" x2="163" y2="134" gradientUnits="userSpaceOnUse">
<stop stop-color="#FF9B25"/>
<stop offset="0.9999" stop-color="#FFBA6B"/>
<stop offset="1" stop-color="#FFF1E3"/>
</linearGradient>
</defs>
</svg>
