<svg width="220" height="203" viewBox="0 0 220 203" fill="none" xmlns="http://www.w3.org/2000/svg">
<rect x="35.9856" y="49.1511" width="146.576" height="72.8489" fill="#8CD6FF"/>
<circle cx="73.2878" cy="48.7122" r="48.7122" fill="#8CD6FF"/>
<circle cx="139.993" cy="57.4893" r="34.6691" fill="#8CD6FF"/>
<circle cx="36.4245" cy="85.5756" r="36.4245" fill="#8CD6FF"/>
<circle cx="182.561" cy="85.1367" r="36.8633" fill="#8CD6FF"/>
<path d="M50.5 136V168" stroke="#BDD7FF" stroke-width="5" stroke-linecap="round"/>
<path d="M50.5 136V168" stroke="#BDD7FF" stroke-width="5" stroke-linecap="round"/>
<path d="M61.8137 163.314L39.1863 140.686" stroke="#BDD7FF" stroke-width="5" stroke-linecap="round"/>
<path d="M39.1863 163.314L61.8137 140.686" stroke="#BDD7FF" stroke-width="5" stroke-linecap="round"/>
<path d="M66 152L34 152" stroke="#BDD7FF" stroke-width="5" stroke-linecap="round"/>
<path d="M107.5 136V168" stroke="#BDD7FF" stroke-width="5" stroke-linecap="round"/>
<path d="M107.5 136V168" stroke="#BDD7FF" stroke-width="5" stroke-linecap="round"/>
<path d="M118.814 163.314L96.1863 140.686" stroke="#BDD7FF" stroke-width="5" stroke-linecap="round"/>
<path d="M96.1863 163.314L118.814 140.686" stroke="#BDD7FF" stroke-width="5" stroke-linecap="round"/>
<path d="M123 152L91 152" stroke="#BDD7FF" stroke-width="5" stroke-linecap="round"/>
<path d="M164.5 136V168" stroke="#BDD7FF" stroke-width="5" stroke-linecap="round"/>
<path d="M164.5 136V168" stroke="#BDD7FF" stroke-width="5" stroke-linecap="round"/>
<path d="M175.814 163.314L153.186 140.686" stroke="#BDD7FF" stroke-width="5" stroke-linecap="round"/>
<path d="M153.186 163.314L175.814 140.686" stroke="#BDD7FF" stroke-width="5" stroke-linecap="round"/>
<path d="M180 152L148 152" stroke="#BDD7FF" stroke-width="5" stroke-linecap="round"/>
<path d="M82.5 168V200" stroke="#BDD7FF" stroke-width="5" stroke-linecap="round"/>
<path d="M82.5 168V200" stroke="#BDD7FF" stroke-width="5" stroke-linecap="round"/>
<path d="M93.8137 195.314L71.1863 172.686" stroke="#BDD7FF" stroke-width="5" stroke-linecap="round"/>
<path d="M71.1863 195.314L93.8137 172.686" stroke="#BDD7FF" stroke-width="5" stroke-linecap="round"/>
<path d="M98 184L66 184" stroke="#BDD7FF" stroke-width="5" stroke-linecap="round"/>
<path d="M135.5 168V200" stroke="#BDD7FF" stroke-width="5" stroke-linecap="round"/>
<path d="M135.5 168V200" stroke="#BDD7FF" stroke-width="5" stroke-linecap="round"/>
<path d="M146.814 195.314L124.186 172.686" stroke="#BDD7FF" stroke-width="5" stroke-linecap="round"/>
<path d="M124.186 195.314L146.814 172.686" stroke="#BDD7FF" stroke-width="5" stroke-linecap="round"/>
<path d="M151 184L119 184" stroke="#BDD7FF" stroke-width="5" stroke-linecap="round"/>
</svg>
