<svg width="238" height="216" viewBox="0 0 238 216" fill="none" xmlns="http://www.w3.org/2000/svg">
<circle cx="154" cy="84" r="50" fill="url(#paint0_linear_12_265)"/>
<path d="M154 3V18" stroke="#FF9D43" stroke-width="5" stroke-linecap="round"/>
<path d="M154 150V165" stroke="#FF9D43" stroke-width="5" stroke-linecap="round"/>
<path d="M211.276 26.7244L200.669 37.331" stroke="#FF9D43" stroke-width="5" stroke-linecap="round"/>
<path d="M107.331 130.669L96.7243 141.276" stroke="#FF9D43" stroke-width="5" stroke-linecap="round"/>
<path d="M235 84L220 84" stroke="#FF9D43" stroke-width="5" stroke-linecap="round"/>
<path d="M88 84L73 84" stroke="#FF9D43" stroke-width="5" stroke-linecap="round"/>
<path d="M211.276 141.276L200.669 130.669" stroke="#FF9D43" stroke-width="5" stroke-linecap="round"/>
<path d="M107.331 37.3309L96.7243 26.7243" stroke="#FF9D43" stroke-width="5" stroke-linecap="round"/>
<rect x="35.9856" y="110.151" width="146.576" height="72.8489" fill="#8CD6FF"/>
<circle cx="73.2878" cy="109.712" r="48.7122" fill="#8CD6FF"/>
<circle cx="139.993" cy="118.489" r="34.6691" fill="#8CD6FF"/>
<circle cx="36.4245" cy="146.576" r="36.4245" fill="#8CD6FF"/>
<circle cx="182.561" cy="146.137" r="36.8633" fill="#8CD6FF"/>
<path d="M42 194L26 213" stroke="url(#paint1_linear_12_265)" stroke-width="5" stroke-linecap="round"/>
<path d="M108 194L92 213" stroke="url(#paint2_linear_12_265)" stroke-width="5" stroke-linecap="round"/>
<path d="M174 194L158 213" stroke="url(#paint3_linear_12_265)" stroke-width="5" stroke-linecap="round"/>
<path d="M64 194L48 213" stroke="url(#paint4_linear_12_265)" stroke-width="5" stroke-linecap="round"/>
<path d="M130 194L114 213" stroke="url(#paint5_linear_12_265)" stroke-width="5" stroke-linecap="round"/>
<path d="M86 194L70 213" stroke="url(#paint6_linear_12_265)" stroke-width="5" stroke-linecap="round"/>
<path d="M152 194L136 213" stroke="url(#paint7_linear_12_265)" stroke-width="5" stroke-linecap="round"/>
<defs>
<linearGradient id="paint0_linear_12_265" x1="154" y1="34" x2="154" y2="134" gradientUnits="userSpaceOnUse">
<stop stop-color="#FF9B25"/>
<stop offset="0.9999" stop-color="#FFBA6B"/>
<stop offset="1" stop-color="#FFF1E3"/>
</linearGradient>
<linearGradient id="paint1_linear_12_265" x1="41.6175" y1="193.678" x2="25.6175" y2="212.678" gradientUnits="userSpaceOnUse">
<stop stop-color="#69A4FE"/>
<stop offset="1" stop-color="#0066FF"/>
</linearGradient>
<linearGradient id="paint2_linear_12_265" x1="107.618" y1="193.678" x2="91.6175" y2="212.678" gradientUnits="userSpaceOnUse">
<stop stop-color="#69A4FE"/>
<stop offset="1" stop-color="#0066FF"/>
</linearGradient>
<linearGradient id="paint3_linear_12_265" x1="173.618" y1="193.678" x2="157.618" y2="212.678" gradientUnits="userSpaceOnUse">
<stop stop-color="#69A4FE"/>
<stop offset="1" stop-color="#0066FF"/>
</linearGradient>
<linearGradient id="paint4_linear_12_265" x1="63.6175" y1="193.678" x2="47.6175" y2="212.678" gradientUnits="userSpaceOnUse">
<stop stop-color="#69A4FE"/>
<stop offset="1" stop-color="#0066FF"/>
</linearGradient>
<linearGradient id="paint5_linear_12_265" x1="129.618" y1="193.678" x2="113.618" y2="212.678" gradientUnits="userSpaceOnUse">
<stop stop-color="#69A4FE"/>
<stop offset="1" stop-color="#0066FF"/>
</linearGradient>
<linearGradient id="paint6_linear_12_265" x1="85.6175" y1="193.678" x2="69.6175" y2="212.678" gradientUnits="userSpaceOnUse">
<stop stop-color="#69A4FE"/>
<stop offset="1" stop-color="#0066FF"/>
</linearGradient>
<linearGradient id="paint7_linear_12_265" x1="151.618" y1="193.678" x2="135.618" y2="212.678" gradientUnits="userSpaceOnUse">
<stop stop-color="#69A4FE"/>
<stop offset="1" stop-color="#0066FF"/>
</linearGradient>
</defs>
</svg>
