<svg width="249" height="279" viewBox="0 0 249 279" fill="none" xmlns="http://www.w3.org/2000/svg">
<path fill-rule="evenodd" clip-rule="evenodd" d="M243.12 122.004C237.501 125.233 231.378 127.722 224.828 129.333C183.969 139.377 141.969 111.405 131.018 66.8565C127.026 50.6185 127.71 34.4194 132.171 19.9017C104.921 37.4504 90.4117 70.506 98.4504 103.206C108.624 144.592 151.062 169.736 193.239 159.368C215.206 153.968 232.77 139.999 243.12 122.004Z" fill="url(#paint0_linear_13_471)"/>
<rect x="35.9856" y="125.216" width="146.576" height="72.8489" fill="#8CD6FF"/>
<circle cx="73.2878" cy="124.777" r="48.7122" fill="#8CD6FF"/>
<circle cx="139.993" cy="133.554" r="34.6691" fill="#8CD6FF"/>
<circle cx="36.4245" cy="161.64" r="36.4245" fill="#8CD6FF"/>
<circle cx="182.561" cy="161.201" r="36.8633" fill="#8CD6FF"/>
<path d="M50.5 212.065V244.065" stroke="#BDD7FF" stroke-width="5" stroke-linecap="round"/>
<path d="M50.5 212.065V244.065" stroke="#BDD7FF" stroke-width="5" stroke-linecap="round"/>
<path d="M61.8137 239.378L39.1863 216.751" stroke="#BDD7FF" stroke-width="5" stroke-linecap="round"/>
<path d="M39.1863 239.378L61.8137 216.751" stroke="#BDD7FF" stroke-width="5" stroke-linecap="round"/>
<path d="M66 228.065L34 228.065" stroke="#BDD7FF" stroke-width="5" stroke-linecap="round"/>
<path d="M107.5 212.065V244.065" stroke="#BDD7FF" stroke-width="5" stroke-linecap="round"/>
<path d="M107.5 212.065V244.065" stroke="#BDD7FF" stroke-width="5" stroke-linecap="round"/>
<path d="M118.814 239.378L96.1863 216.751" stroke="#BDD7FF" stroke-width="5" stroke-linecap="round"/>
<path d="M96.1863 239.378L118.814 216.751" stroke="#BDD7FF" stroke-width="5" stroke-linecap="round"/>
<path d="M123 228.065L91 228.065" stroke="#BDD7FF" stroke-width="5" stroke-linecap="round"/>
<path d="M164.5 212.065V244.065" stroke="#BDD7FF" stroke-width="5" stroke-linecap="round"/>
<path d="M164.5 212.065V244.065" stroke="#BDD7FF" stroke-width="5" stroke-linecap="round"/>
<path d="M175.814 239.378L153.186 216.751" stroke="#BDD7FF" stroke-width="5" stroke-linecap="round"/>
<path d="M153.186 239.378L175.814 216.751" stroke="#BDD7FF" stroke-width="5" stroke-linecap="round"/>
<path d="M180 228.065L148 228.065" stroke="#BDD7FF" stroke-width="5" stroke-linecap="round"/>
<path d="M82.5 244.065V276.065" stroke="#BDD7FF" stroke-width="5" stroke-linecap="round"/>
<path d="M82.5 244.065V276.065" stroke="#BDD7FF" stroke-width="5" stroke-linecap="round"/>
<path d="M93.8137 271.378L71.1863 248.751" stroke="#BDD7FF" stroke-width="5" stroke-linecap="round"/>
<path d="M71.1863 271.378L93.8137 248.751" stroke="#BDD7FF" stroke-width="5" stroke-linecap="round"/>
<path d="M98 260.065L66 260.065" stroke="#BDD7FF" stroke-width="5" stroke-linecap="round"/>
<path d="M135.5 244.065V276.065" stroke="#BDD7FF" stroke-width="5" stroke-linecap="round"/>
<path d="M135.5 244.065V276.065" stroke="#BDD7FF" stroke-width="5" stroke-linecap="round"/>
<path d="M146.814 271.378L124.186 248.751" stroke="#BDD7FF" stroke-width="5" stroke-linecap="round"/>
<path d="M124.186 271.378L146.814 248.751" stroke="#BDD7FF" stroke-width="5" stroke-linecap="round"/>
<path d="M151 260.065L119 260.065" stroke="#BDD7FF" stroke-width="5" stroke-linecap="round"/>
<defs>
<linearGradient id="paint0_linear_13_471" x1="147.094" y1="16.2331" x2="182.906" y2="161.908" gradientUnits="userSpaceOnUse">
<stop stop-color="#1B3885"/>
<stop offset="1" stop-color="#110F7A"/>
</linearGradient>
</defs>
</svg>
